<?xml version="1.0" encoding="UTF-8"?>
<svg xmlns="http://www.w3.org/2000/svg" xmlns:xlink="http://www.w3.org/1999/xlink" width="2500pt" height="2500pt" viewBox="0 0 2500 2500" version="1.1">
<g id="surface1">
<rect x="0" y="0" width="2500" height="2500" style="fill:rgb(0.39978%,0.39978%,0.39978%);fill-opacity:1;stroke:none;"/>
<path style=" stroke:none;fill-rule:evenodd;fill:rgb(93.299866%,11.399841%,31.799316%);fill-opacity:1;" d="M 1482.410156 2013.070313 C 1537.691406 2013.070313 1582.511719 1968.617188 1582.511719 1913.785156 C 1582.511719 1858.953125 1537.691406 1814.488281 1482.410156 1814.488281 L 1467.328125 1814.488281 C 1522.613281 1814.488281 1567.429688 1858.953125 1567.429688 1913.785156 C 1567.429688 1968.617188 1522.613281 2013.070313 1467.328125 2013.070313 Z M 1482.410156 2013.070313 "/>
<path style=" stroke:none;fill-rule:evenodd;fill:rgb(39.99939%,78.399658%,81.199646%);fill-opacity:1;" d="M 1465.964844 1814.488281 L 1450.882813 1814.488281 C 1395.601563 1814.488281 1350.777344 1858.953125 1350.777344 1913.785156 C 1350.777344 1968.617188 1395.601563 2013.070313 1450.882813 2013.070313 L 1465.964844 2013.070313 C 1410.671875 2013.070313 1365.855469 1968.617188 1365.855469 1913.785156 C 1365.855469 1858.953125 1410.675781 1814.488281 1465.964844 1814.488281 "/>
<path style=" stroke:none;fill-rule:evenodd;fill:rgb(0.39978%,0.39978%,0.39978%);fill-opacity:1;" d="M 1466.648438 1865.507813 C 1493.535156 1865.507813 1515.332031 1887.121094 1515.332031 1913.78125 C 1515.332031 1940.445313 1493.535156 1962.058594 1466.648438 1962.058594 C 1439.757813 1962.058594 1417.960938 1940.445313 1417.960938 1913.78125 C 1417.960938 1887.121094 1439.757813 1865.507813 1466.648438 1865.507813 "/>
<path style=" stroke:none;fill-rule:evenodd;fill:rgb(100%,100%,100%);fill-opacity:1;" d="M 1601.695313 1769.613281 L 1601.695313 2011.710938 L 1659.296875 2011.710938 L 1659.296875 1949.152344 L 1677.117188 1932.816406 L 1733.34375 2013.070313 L 1795.050781 2013.070313 L 1714.140625 1896.101563 L 1786.816406 1825.371094 L 1716.890625 1825.371094 L 1659.296875 1882.492188 L 1659.296875 1769.613281 Z M 980.554688 1769.613281 L 980.554688 2011.710938 L 1038.148438 2011.710938 L 1038.148438 1949.152344 L 1055.976563 1932.816406 L 1112.1875 2013.070313 L 1173.890625 2013.070313 L 1092.980469 1896.101563 L 1165.65625 1825.371094 L 1095.730469 1825.371094 L 1038.148438 1882.492188 L 1038.148438 1769.613281 Z M 898.296875 1847.140625 L 955.871094 1847.140625 L 955.871094 2011.710938 L 898.296875 2011.710938 Z M 898.296875 1798.175781 C 898.296875 1782.40625 911.167969 1769.613281 927.070313 1769.613281 C 942.984375 1769.613281 955.871094 1782.40625 955.871094 1798.175781 C 955.871094 1813.945313 942.992188 1826.734375 927.070313 1826.734375 C 911.167969 1826.726563 898.296875 1813.945313 898.296875 1798.175781 M 1187.609375 1769.613281 L 1187.609375 1819.941406 L 1246.5625 1819.941406 L 1246.5625 2011.710938 L 1305.539063 2011.710938 L 1305.539063 1821.300781 L 1353.523438 1821.300781 L 1369.976563 1769.613281 Z M 704.949219 1769.613281 L 704.949219 1819.941406 L 763.902344 1819.941406 L 763.902344 2011.710938 L 822.878906 2011.710938 L 822.878906 1821.300781 L 870.863281 1821.300781 L 887.316406 1769.613281 Z M 704.949219 1769.613281 "/>
<path style=" stroke:none;fill-rule:evenodd;fill:rgb(93.299866%,11.399841%,32.199097%);fill-opacity:1;" d="M 1001.640625 1447.636719 C 978.933594 1417.875 966.65625 1381.464844 966.710938 1344.03125 C 966.710938 1249.527344 1043.367188 1172.90625 1137.9375 1172.90625 C 1155.558594 1172.894531 1173.078125 1175.601563 1189.878906 1180.925781 L 1189.878906 974 C 1170.25 971.3125 1150.441406 970.171875 1130.632813 970.59375 L 1130.632813 1131.652344 C 1113.828125 1126.328125 1096.300781 1123.625 1078.671875 1123.636719 C 984.101563 1123.636719 907.453125 1200.253906 907.453125 1294.765625 C 907.453125 1361.589844 945.769531 1419.453125 1001.640625 1447.636719 M 1585.945313 727.390625 C 1545.300781 683.011719 1518.613281 625.648438 1512.839844 562.234375 L 1512.839844 536.203125 L 1456.675781 536.203125 C 1470.808594 616.796875 1519.027344 685.65625 1585.945313 727.390625 M 1512.839844 931.589844 C 1592.371094 988.414063 1689.8125 1021.851563 1795.042969 1021.851563 L 1795.042969 819.449219 C 1775.125 819.453125 1755.261719 817.378906 1735.777344 813.246094 L 1735.777344 972.570313 C 1630.554688 972.570313 1533.128906 939.132813 1453.570313 882.308594 L 1453.570313 1295.347656 C 1453.570313 1501.972656 1285.988281 1669.460938 1079.269531 1669.460938 C 1002.140625 1669.460938 930.449219 1646.15625 870.890625 1606.1875 C 938.863281 1675.648438 1033.652344 1718.742188 1138.519531 1718.742188 C 1345.253906 1718.742188 1512.84375 1551.253906 1512.84375 1344.621094 L 1512.84375 931.589844 Z M 1512.839844 931.589844 "/>
<path style=" stroke:none;fill-rule:evenodd;fill:rgb(100%,100%,100%);fill-opacity:1;" d="M 1453.574219 882.308594 C 1533.128906 939.132813 1630.554688 972.570313 1735.777344 972.570313 L 1735.777344 813.246094 C 1677.042969 800.75 1625.046875 770.066406 1585.945313 727.394531 C 1519.03125 685.65625 1470.808594 616.796875 1456.675781 536.203125 L 1309.15625 536.203125 L 1309.15625 1344.613281 C 1308.820313 1438.855469 1232.296875 1515.164063 1137.929688 1515.164063 C 1082.320313 1515.164063 1032.917969 1488.671875 1001.632813 1447.632813 C 945.761719 1419.453125 907.449219 1361.589844 907.449219 1294.765625 C 907.449219 1200.253906 984.09375 1123.636719 1078.664063 1123.636719 C 1096.78125 1123.636719 1114.246094 1126.457031 1130.628906 1131.652344 L 1130.628906 970.59375 C 927.542969 974.785156 764.207031 1140.640625 764.207031 1344.621094 C 764.207031 1446.445313 804.882813 1538.753906 870.890625 1606.195313 C 930.449219 1646.164063 1002.140625 1669.46875 1079.269531 1669.46875 C 1285.988281 1669.46875 1453.574219 1501.972656 1453.574219 1295.355469 Z M 1453.574219 882.308594 "/>
<path style=" stroke:none;fill-rule:evenodd;fill:rgb(41.19873%,78.799438%,81.599426%);fill-opacity:1;" d="M 1130.632813 970.59375 L 1130.632813 924.730469 C 1113.613281 922.402344 1096.453125 921.238281 1079.277344 921.25 C 872.535156 921.25 704.949219 1088.746094 704.949219 1295.347656 C 704.949219 1424.882813 770.8125 1539.035156 870.898438 1606.1875 C 804.890625 1538.746094 764.214844 1446.433594 764.214844 1344.613281 C 764.214844 1140.640625 927.542969 974.785156 1130.632813 970.59375 M 1456.675781 536.203125 C 1455.324219 528.5 1454.289063 520.75 1453.574219 512.960938 L 1453.574219 486.929688 L 1249.882813 486.929688 L 1249.882813 1295.347656 C 1249.554688 1389.582031 1173.039063 1465.890625 1078.664063 1465.890625 C 1050.957031 1465.890625 1024.800781 1459.320313 1001.632813 1447.636719 C 1032.917969 1488.675781 1082.320313 1515.164063 1137.929688 1515.164063 C 1232.289063 1515.164063 1308.820313 1438.855469 1309.15625 1344.613281 L 1309.15625 536.203125 Z M 1735.777344 813.25 L 1735.777344 770.167969 C 1682.808594 770.246094 1630.886719 755.421875 1585.945313 727.386719 C 1625.726563 770.914063 1678.109375 800.933594 1735.777344 813.25 "/>
<path style=" stroke:none;fill-rule:evenodd;fill:rgb(100%,100%,100%);fill-opacity:1;" d="M 1417.964844 1913.78125 C 1417.964844 1887.113281 1439.765625 1865.507813 1466.652344 1865.507813 C 1493.519531 1865.507813 1515.324219 1887.113281 1515.324219 1913.78125 C 1515.324219 1940.453125 1493.519531 1962.074219 1466.652344 1962.074219 C 1439.765625 1962.066406 1417.964844 1940.453125 1417.964844 1913.78125 M 1467.320313 2013.070313 C 1522.605469 2013.070313 1567.429688 1968.613281 1567.429688 1913.78125 C 1567.429688 1858.953125 1522.605469 1814.488281 1467.320313 1814.488281 L 1465.957031 1814.488281 C 1410.675781 1814.488281 1365.855469 1858.953125 1365.855469 1913.78125 C 1365.855469 1968.613281 1410.671875 2013.070313 1465.957031 2013.070313 Z M 1467.320313 2013.070313 "/>
</g>
</svg>
